<svg width="418" height="310" viewBox="0 0 418 310" fill="none" xmlns="http://www.w3.org/2000/svg">
<path d="M398.706 176.44C404.491 167.538 407.805 157.417 407.805 146.655C407.805 119.303 386.604 96.0198 356.824 86.8446C356.824 86.8157 356.829 86.7867 356.829 86.7537C356.829 38.8409 308.902 0 249.78 0C199.906 0 158.121 27.6827 146.234 65.0942C138.71 63.0906 130.691 61.9669 122.341 61.9669C83.131 61.9669 50.8584 85.8985 46.4388 116.713C19.9111 121.261 0 140.33 0 163.18C0 189.416 26.2473 210.688 58.622 210.688C59.5242 210.688 60.4163 210.638 61.3033 210.597C61.2829 211.32 61.1707 212.026 61.1707 212.753C61.1707 259.526 107.956 297.441 165.671 297.441C198.484 297.441 227.734 285.164 246.895 265.987C257.998 275.179 273.433 280.917 290.561 280.917C314.265 280.917 334.777 269.969 344.932 253.99C350.294 255.374 355.998 256.13 361.927 256.13C392.895 256.13 418 235.784 418 210.688C418 197.009 410.507 184.773 398.706 176.44Z" fill="#C7EDE6"/>
<path d="M221.168 21.4802C184.405 21.4802 149.149 35.8177 123.154 61.3397C97.1584 86.861 82.5549 121.475 82.5549 157.568C82.5549 193.661 97.1584 228.276 123.154 253.797C149.149 279.319 184.405 293.656 221.168 293.656C257.93 293.656 293.187 279.319 319.181 253.797C345.177 228.276 359.78 193.661 359.78 157.568C359.78 121.475 345.177 86.861 319.181 61.3397C293.187 35.8177 257.93 21.4802 221.168 21.4802Z" fill="#A3A3CD"/>
<path d="M221.169 297.754C142.437 297.754 78.3826 234.866 78.3826 157.568C78.3826 80.2703 142.437 17.3829 221.169 17.3829C299.901 17.3829 363.954 80.2703 363.954 157.568C363.954 234.866 299.901 297.754 221.169 297.754ZM221.169 25.5775C147.039 25.5775 86.7291 84.7832 86.7291 157.568C86.7291 230.354 147.039 289.559 221.169 289.559C295.298 289.559 355.608 230.354 355.608 157.568C355.608 84.7832 295.298 25.5775 221.169 25.5775Z" fill="#472B29"/>
<path d="M348.028 247.257V248.914H359.602V247.257C359.602 247.257 375.967 247.257 380.82 247.257C390.407 247.257 398.181 240.582 398.181 232.349C398.181 224.62 391.306 218.339 382.537 217.59C382.622 216.99 382.749 216.404 382.749 215.784C382.749 207.552 374.976 200.876 365.389 200.876C359.841 200.876 354.96 203.149 351.782 206.627C351.241 197.894 342.9 190.937 332.596 190.937C321.944 190.937 313.306 198.355 313.306 207.502C313.306 208.98 313.603 210.384 314.027 211.749C311.551 209.175 307.851 207.502 303.661 207.502C296.79 207.502 291.184 211.925 290.332 217.623C289.634 217.55 288.951 217.441 288.229 217.441C278.642 217.441 270.868 224.116 270.868 232.349C270.868 240.582 278.642 247.257 288.229 247.257C297.816 247.257 324.88 247.257 324.88 247.257H348.028Z" fill="#FDFCEF"/>
<path d="M332.596 189.281C320.895 189.281 311.377 197.454 311.377 207.502C311.377 207.555 311.377 207.605 311.377 207.658C309.055 206.482 306.401 205.846 303.661 205.846C296.597 205.846 290.502 210.023 288.777 215.801C288.596 215.791 288.415 215.784 288.23 215.784C277.593 215.784 268.94 223.215 268.94 232.349C268.94 241.483 277.593 248.914 288.23 248.914H348.028C349.093 248.914 349.957 248.172 349.957 247.257C349.957 246.343 349.093 245.601 348.028 245.601H288.23C279.719 245.601 272.798 239.658 272.798 232.349C272.798 225.041 279.719 219.097 288.23 219.097C288.681 219.097 289.117 219.154 289.553 219.203L290.097 219.266C290.178 219.276 290.255 219.28 290.336 219.28C291.285 219.28 292.118 218.667 292.246 217.832C292.983 212.886 297.89 209.158 303.661 209.158C307.076 209.158 310.309 210.487 312.539 212.803C312.917 213.194 313.468 213.406 314.028 213.406C314.329 213.406 314.63 213.346 314.907 213.22C315.714 212.866 316.119 212.074 315.887 211.322C315.444 209.881 315.235 208.668 315.235 207.502C315.235 199.283 323.025 192.594 332.596 192.594C341.782 192.594 349.367 198.796 349.857 206.717C349.899 207.406 350.435 207.999 351.203 208.208C351.396 208.261 351.593 208.287 351.79 208.287C352.368 208.287 352.931 208.059 353.302 207.651C356.276 204.398 360.678 202.533 365.389 202.533C373.9 202.533 380.821 208.476 380.821 215.784C380.821 216.172 380.755 216.546 380.697 216.921L380.624 217.388C380.562 217.832 380.709 218.276 381.033 218.624C381.357 218.971 381.831 219.193 382.345 219.236C390.277 219.916 396.253 225.554 396.253 232.349C396.253 239.658 389.331 245.601 380.821 245.601H359.602C358.537 245.601 357.673 246.343 357.673 247.257C357.673 248.172 358.537 248.914 359.602 248.914H380.821C391.457 248.914 400.111 241.483 400.111 232.349C400.111 224.408 393.594 217.729 384.667 216.192C384.675 216.056 384.679 215.92 384.679 215.784C384.679 206.651 376.025 199.22 365.389 199.22C360.852 199.22 356.543 200.598 353.109 203.076C350.802 195.112 342.453 189.281 332.596 189.281Z" fill="#472B29"/>
<path d="M326.809 212.471C321.396 212.471 316.743 215.781 315.57 220.227C314.154 219.492 312.538 219.097 310.894 219.097C306.257 219.097 302.415 222.069 301.817 225.949C301.033 225.796 300.289 225.723 299.564 225.723C293.665 225.723 288.719 229.699 288.306 234.774C288.267 235.231 288.669 235.629 289.197 235.662C289.22 235.662 289.244 235.662 289.267 235.662C289.768 235.662 290.193 235.327 290.227 234.893C290.571 230.683 294.668 227.38 299.56 227.38C300.443 227.38 301.373 227.519 302.407 227.8C302.492 227.824 302.58 227.834 302.665 227.834C302.878 227.834 303.09 227.767 303.267 227.655C303.514 227.502 303.661 227.231 303.661 226.966C303.661 223.54 306.905 220.754 310.894 220.754C312.619 220.754 314.309 221.31 315.644 222.321C315.825 222.457 316.053 222.53 316.28 222.53C316.404 222.53 316.523 222.51 316.639 222.467C316.978 222.351 317.21 222.079 317.237 221.764C317.638 217.481 321.839 214.128 326.809 214.128C327.611 214.128 328.448 214.241 329.44 214.482C329.528 214.506 329.621 214.516 329.71 214.516C330.13 214.516 330.508 214.274 330.632 213.913C330.778 213.472 330.481 213.015 329.968 212.889C328.803 212.604 327.796 212.471 326.809 212.471ZM380.369 217.441C375.253 217.441 370.693 220.413 369.281 224.67C369.134 225.11 369.431 225.568 369.944 225.693C370.037 225.713 370.126 225.723 370.211 225.723C370.631 225.723 371.017 225.485 371.137 225.12C372.313 221.575 376.109 219.097 380.369 219.097C380.82 219.097 381.256 219.144 381.688 219.193C381.734 219.2 381.777 219.203 381.823 219.203C382.29 219.203 382.707 218.899 382.772 218.484C382.845 218.031 382.475 217.613 381.947 217.553C381.43 217.494 380.905 217.441 380.369 217.441Z" fill="#472B29"/>
<path d="M114.941 142.262C114.941 142.262 120.987 142.262 128.444 142.262C135.902 142.262 141.947 137.071 141.947 130.667C141.947 124.767 136.797 119.953 130.161 119.221C130.269 118.628 130.373 118.035 130.373 117.415C130.373 111.011 124.328 105.82 116.87 105.82C112.889 105.82 109.347 107.327 106.878 109.68C105.397 103.69 99.2125 99.1941 91.7936 99.1941C83.2714 99.1941 76.3618 105.128 76.3618 112.446C76.3618 113.079 76.4775 113.685 76.5778 114.294C74.9266 113.155 72.8587 112.446 70.5748 112.446C65.8372 112.446 61.9137 115.384 61.1035 119.254C60.4129 119.161 59.7224 119.072 59.0009 119.072C51.5435 119.072 45.498 124.263 45.498 130.667C45.498 137.071 51.5435 142.262 59.0009 142.262C66.4584 142.262 87.9357 142.262 87.9357 142.262V143.919H114.941V142.262Z" fill="#FDFCEF"/>
<path d="M121.692 127.354C121.16 127.354 120.728 126.983 120.728 126.526C120.728 122.474 124.566 119.178 129.285 119.178C129.416 119.208 132.128 119.174 134.084 119.628C134.597 119.748 134.902 120.201 134.763 120.642C134.624 121.086 134.096 121.348 133.582 121.225C131.869 120.828 129.339 120.828 129.289 120.834C125.631 120.834 122.657 123.388 122.657 126.526C122.657 126.983 122.225 127.354 121.692 127.354ZM95.6509 140.606C95.1393 140.606 94.6486 140.78 94.2867 141.091C93.9252 141.402 93.7219 141.823 93.7219 142.262C93.7219 142.702 93.9252 143.123 94.2867 143.434C94.6486 143.744 95.1393 143.919 95.6509 143.919C96.1625 143.919 96.6532 143.744 97.0151 143.434C97.3766 143.123 97.5799 142.702 97.5799 142.262C97.5799 141.823 97.3766 141.402 97.0151 141.091C96.6532 140.78 96.1625 140.606 95.6509 140.606Z" fill="#472B29"/>
<path d="M128.445 143.919H114.942C113.877 143.919 113.013 143.177 113.013 142.262C113.013 141.348 113.877 140.606 114.942 140.606H128.445C134.826 140.606 140.018 136.147 140.018 130.667C140.018 125.711 135.678 121.497 129.918 120.864C129.401 120.804 128.935 120.572 128.622 120.215C128.31 119.857 128.178 119.406 128.259 118.966C128.348 118.456 128.445 117.945 128.445 117.415C128.445 111.936 123.252 107.476 116.871 107.476C113.591 107.476 110.551 108.652 108.31 110.789C107.828 111.25 107.071 111.445 106.381 111.28C105.679 111.117 105.142 110.634 104.992 110.024C103.676 104.71 98.1248 100.851 91.7939 100.851C84.348 100.851 78.291 106.052 78.291 112.446C78.291 112.92 78.372 113.373 78.4492 113.831C78.5611 114.503 78.2062 115.282 77.5156 115.62C76.825 115.958 75.9878 116.011 75.3705 115.587C73.9624 114.616 72.3073 114.102 70.5751 114.102C66.8483 114.102 63.6616 116.392 63.0019 119.549C62.8167 120.433 61.86 121.026 60.8067 120.891C60.2126 120.811 59.6185 120.728 59.0012 120.728C52.6201 120.728 47.4273 125.187 47.4273 130.667C47.4273 136.147 52.6201 140.606 59.0012 140.606H87.9359C89.0007 140.606 89.8649 141.348 89.8649 142.262C89.8649 143.177 89.0007 143.919 87.9359 143.919H59.0012C50.4905 143.919 43.5693 137.975 43.5693 130.667C43.5693 123.359 50.4905 117.415 59.0012 117.415C59.2288 117.415 59.4487 117.422 59.6725 117.435C61.2697 113.506 65.6022 110.789 70.5751 110.789C71.9215 110.789 73.2332 110.991 74.4755 111.386C75.1121 103.657 82.6351 97.5376 91.7939 97.5376C98.8578 97.5376 105.166 101.271 107.816 106.728C110.439 105.078 113.611 104.163 116.871 104.163C125.381 104.163 132.303 110.107 132.303 117.415C132.303 117.574 132.299 117.73 132.287 117.886C139.012 119.37 143.876 124.601 143.876 130.667C143.876 137.975 136.955 143.919 128.445 143.919Z" fill="#472B29"/>
<path d="M107.226 140.606C106.612 140.606 103.981 140.606 103.368 140.606C102.303 140.606 101.439 141.348 101.439 142.262C101.439 143.177 102.303 143.919 103.368 143.919C103.981 143.919 106.612 143.919 107.226 143.919C108.29 143.919 109.155 143.177 109.155 142.262C109.155 141.348 108.29 140.606 107.226 140.606Z" fill="#472B29"/>
<path fill-rule="evenodd" clip-rule="evenodd" d="M211.777 223.167C211.777 223.167 204.253 248.524 195.727 269.846C187.2 291.169 172.152 301.542 170.146 301.542C168.14 301.542 166.133 289.441 166.635 282.525C167.136 275.61 181.181 261.778 157.104 283.677C133.028 305.576 115.975 314.797 117.479 307.305C114.971 288.863 143.06 250.253 125.002 257.168C106.945 264.083 76.3488 280.22 95.4091 254.863C114.469 229.506 134.031 217.98 117.479 218.557C100.926 219.133 84.8759 227.778 92.9011 211.065C100.927 194.353 139.537 168.362 156.092 157.412C169.133 164.904 194.726 184.557 211.78 223.168L211.777 223.167Z" fill="#FFAA56"/>
<path fill-rule="evenodd" clip-rule="evenodd" d="M202.784 216.378C202.784 216.378 197.289 246.478 191.295 255.564C185.3 264.651 183.802 263.515 182.303 251.021C180.804 238.527 191.295 226.032 173.312 239.663C155.328 253.293 139.842 270.33 148.834 249.317C157.826 228.304 160.324 223.193 147.835 230.576C135.347 237.959 123.357 243.638 138.344 223.193C149.833 208.427 126.855 204.451 122.858 202.748C113.367 204.452 163.32 172.647 168.316 172.647C173.811 173.783 200.786 211.834 202.784 216.378V216.378Z" fill="#F7F747"/>
<path fill-rule="evenodd" clip-rule="evenodd" d="M359.637 9.65718C313.18 10.7929 195.788 32.374 150.831 163.565C166.317 166.973 204.281 208.999 210.274 232.284C324.666 165.838 357.14 60.7746 359.637 9.66388V9.65718Z" fill="white" stroke="#472B29" stroke-width="5" stroke-linejoin="round"/>
<path fill-rule="evenodd" clip-rule="evenodd" d="M273.716 184.577C273.716 184.577 271.718 242.505 271.718 243.073C271.718 243.64 210.271 275.444 206.778 277.148L209.775 231.714C215.269 232.282 264.225 196.504 273.713 184.577H273.716Z" fill="#9095F0" stroke="#472B29" stroke-width="5" stroke-linejoin="round"/>
<path fill-rule="evenodd" clip-rule="evenodd" d="M190.601 90.1986C190.601 90.1986 140.212 92.7571 139.712 92.7711C139.213 92.7851 112.757 163.399 111.344 167.418L151.221 162.895C156.582 140.762 178.848 103.553 190.6 90.1975L190.601 90.1986Z" fill="#9095F0" stroke="#472B29" stroke-width="5" stroke-linejoin="round"/>
<path fill-rule="evenodd" clip-rule="evenodd" d="M293.361 74.4566C280.873 60.8266 251.9 77.2964 264.887 101.717C279.374 122.729 308.846 96.0381 293.361 74.4566Z" fill="#9095F0" stroke="#472B29" stroke-width="5" stroke-linejoin="round"/>
</svg>
